# xmcd
#
# Track frame offsets:
#  150
#  11922
#  25460
#  36072
#  46395
#  59022
#  74367
#  85722
#  96427
#  111770
#  122305
#  132072
#  143060
#  156110
#  176115
#  184797
#  196160
#  207100
#  218060
#  227750
#  236772
#
# Disc length: 3392 seconds
#
# Revision: 0
# Processed by: cddbd v1.5.1PL2 Copyright (c) Steve Scherf et al.
# Submitted via: Collectorz.com Music Collector 6.9
#
DISCID=280d3e15
DTITLE=Farin Young, Tom T. Hall, Leroy van Dyke, Johnny Russell, Jimmy Dean, Porter Wagoner - Country Heroes
DYEAR=1997
DGENRE=Country/Oldies
TTITLE0=Faron Young - Wine me up
TTITLE1=Faron Young - This little girl of mine
TTITLE2=Faron Young - Going steady
TTITLE3=Faron Young - Hello walls
TTITLE4=Faron Young - Four in the morning
TTITLE5=Tom T. Hall - I like beer
TTITLE6=Tom T. Hall - Ravishing ruby
TTITLE7=Tom T. Hall - The year Clayton Delany died
TTITLE8=Tom T. Hall - Old dogs, children and watermelon wine
TTITLE9=Leroy Van Dyke - Walk on by
TTITLE10=Leroy Van Dyke - The auctioneer
TTITLE11=Johnny Russell - Got no reason now for going home
TTITLE12=Johnny Russell - Crystal chandeliers
TTITLE13=Jimmy Dean - Bill Bailey
TTITLE14=Jimmy Dean - Big bad John
TTITLE15=Porter Wagoner - Ole slewfoot
TTITLE16=Porter Wagoner - I thought I heard you calling my name
TTITLE17=Porter Wagoner - Sugarfoot rag
TTITLE18=Porter Wagoner - Louisiana saturday night
TTITLE19=Porter Wagoner - Satisfied mind
TTITLE20=Porter Wagoner - Y´all come
EXTD=
EXTT0=
EXTT1=
EXTT2=
EXTT3=
EXTT4=
EXTT5=
EXTT6=
EXTT7=
EXTT8=
EXTT9=
EXTT10=
EXTT11=
EXTT12=
EXTT13=
EXTT14=
EXTT15=
EXTT16=
EXTT17=
EXTT18=
EXTT19=
EXTT20=
PLAYORDER=
